<?xml version="1.0" encoding="utf-8"?>
<!-- Svg Vector Icons : http://www.onlinewebfonts.com/icon -->
<!DOCTYPE svg PUBLIC "-//W3C//DTD SVG 1.1//EN" "http://www.w3.org/Graphics/SVG/1.1/DTD/svg11.dtd">
<svg version="1.1" xmlns="http://www.w3.org/2000/svg" xmlns:xlink="http://www.w3.org/1999/xlink" x="0px" y="0px" viewBox="0 0 1000 1000" enable-background="new 0 0 1000 1000" xml:space="preserve">
<metadata> Svg Vector Icons : http://www.onlinewebfonts.com/icon </metadata>
<g><g transform="translate(0.000000,511.000000) scale(0.100000,-0.100000)"><path fill="#fff" d="M4647.6,4385.6c-236.5-60.8-515.8-223-689.2-403.2c-42.8-45-94.6-81.1-112.6-81.1c-18,0-430.2,105.9-914.5,236.5c-921.2,247.8-1058.6,270.3-1214.1,205c-202.7-85.6-351.4-310.8-351.4-536.1c0-209.5,94.6-385.2,263.5-484.3c60.8-36,430.2-144.2,1011.3-301.8c504.5-135.1,919-247.8,921.2-250c2.3-4.5,27-83.3,54.1-175.7c76.6-254.5,175.7-421.2,362.6-610.4c254.5-259,500-380.7,855.9-423.5c430.2-54.1,849.2,90.1,1184.8,407.7l121.6,114.9l939.3-252.3c518-137.4,961.8-250,988.8-250c108.1,0,277.1,72.1,376.2,157.7c317.6,281.6,225.2,806.4-168.9,955c-54,20.3-486.5,141.9-961.8,270.3c-538.3,144.2-871.7,243.3-882.9,263.5c-9,18-36,103.6-63.1,189.2c-126.1,421.2-457.2,765.8-898.7,930.2C5278.3,4419.4,4857.1,4437.4,4647.6,4385.6z M5143.2,3439.6c81.1-24.8,139.6-63.1,202.7-130.6c220.7-238.8,155.4-601.4-135.1-747.8c-193.7-94.6-391.9-63.1-545.1,90.1c-153.2,153.2-184.7,351.4-87.8,547.3c60.8,123.9,144.2,196,277,243.3C4960.7,3480.1,5005.8,3480.1,5143.2,3439.6z"/><path fill="#fff" d="M2118.2,2687.3c-81.1-38.3-123.9-92.3-396.4-522.6c-168.9-265.8-601.4-948.3-964-1518.1L100-389.5l11.3-292.8c13.5-360.4,65.3-569.9,218.5-878.4c272.5-556.4,790.6-979.8,1385.2-1137.5c227.5-60.8,639.7-83.3,867.2-47.3c984.3,153.2,1729.9,948.3,1831.2,1952.9c15.8,173.4,18,283.8,2.3,351.4c-15.8,67.6-308.6,549.6-941.5,1551.9c-506.8,797.4-941.5,1475.3-968.5,1504.6c-54.1,60.8-168.9,114.9-243.3,114.9C2233,2730.1,2170,2709.8,2118.2,2687.3z M2976.3,639.8c380.7-599.2,687-1094.7,680.2-1099.2c-4.5-4.5-637.4-6.8-1405.5-4.5l-1398.7,6.8l702.7,1105.9c385.2,610.4,707.3,1101.4,716.3,1092.4C2278.1,1734.5,2595.7,1236.7,2976.3,639.8z"/><path fill="#fff" d="M7593.8,1243.5c-49.6-24.8-114.9-83.3-144.2-130.6C7328,928.1,5679.3-1702.7,5629.7-1786c-42.8-74.3-51.8-121.6-51.8-272.6c0-214,45.1-477.5,121.6-698.3c232-684.7,824.4-1214,1563.2-1398.7c209.5-54,745.6-51.8,959.5,0c959.5,241,1619.5,1036.1,1673.6,2020.4c9,182.4,4.5,254.5-22.5,317.6c-40.5,96.8-1799.7,2878.6-1883,2977.7c-60.8,72.1-171.2,128.4-254.5,128.4C7706.4,1288.5,7643.4,1268.2,7593.8,1243.5z M8447.5-790.4c378.4-599.2,689.2-1096.9,689.2-1103.7c0-9-623.9-15.8-1387.5-15.8c-1153.2,0-1385.2,4.5-1378.5,31.5c11.3,45,1351.5,2175.8,1369.5,2175.8C7749.2,297.5,8066.8-193.6,8447.5-790.4z"/></g></g>
</svg>